<svg class="svg-icon" style="width: 1em; height: 1em;vertical-align: middle;fill: currentColor;overflow: hidden;" viewBox="0 0 35 35" version="1.1" xmlns="http://www.w3.org/2000/svg">
    <path d="M922.5 340.1c0-35.9-18.3-69.3-48.4-88.8l-164-105.8c-15.4-9.9-35.6 1.1-35.6 19.4v5c0 16.6 8.4 32 22.4 41l12.1 7.7c20.9 13.4 33.5 36.4 33.5 61.2v84.3c0 45.5 36.9 82.4 82.4 82.4 12.7 0 23.1 10.3 23.1 23.1v380.3c0 22.5-18.2 40.7-40.7 40.7h-28.4c-12.4 0-22.4-10-22.4-22.4V614.9c0-51-41.4-92.4-92.4-92.4h-18c-18.3 0-33.1-14.8-33.1-33.1V211.9c0-40.5-32.9-73.4-73.4-73.4H152.4c-40.5 0-73.4 32.9-73.4 73.4v719.2c0 18.5 15 33.4 33.4 33.4h467.2c18.5 0 33.4-15 33.4-33.4V629.6c0-18.3 14.8-33.1 33.1-33.1h2.3c18.3 0 33.1 14.8 33.1 33.1V914c0 27.9 22.6 50.5 50.5 50.5l147.1 0.2c24.2 0 43.9-19.6 43.9-43.9l-0.5-580.7z m-472 272.4h-210c-11 0-20-9-20-20v-56c0-11 9-20 20-20h210c11 0 20 9 20 20v56c0 11-9 20-20 20z m77.5-204c0 11-9 20-20 20H184c-11 0-20-9-20-20v-160c0-11 9-20 20-20h324c11 0 20 9 20 20v160z"  />
</svg>